<svg xmlns="http://www.w3.org/2000/svg" width="170" height="200" viewBox="0 0 170 200" version="1.1">
	<path d="M 27 99.464 L 27 198.928 17.250 199.254 L 7.500 199.581 17.750 199.791 L 28 200 28 100 C 28 45, 27.775 0, 27.500 0 C 27.225 0, 27 44.759, 27 99.464 M 93.974 22.750 C 92.292 24.262, 90.339 27.192, 89.633 29.261 L 88.351 33.021 78.834 33.403 C 62.278 34.068, 62.583 33.440, 62.179 67.631 C 61.816 98.418, 62.304 101.985, 67.301 105.059 C 70.372 106.948, 72.235 107.017, 113.728 106.764 L 156.956 106.500 159.728 103.729 L 162.500 100.957 162.792 71.654 C 162.969 53.840, 162.693 41.322, 162.087 39.728 C 160.354 35.170, 156.658 33.621, 146.444 33.175 L 137.179 32.769 136.559 29.461 C 136.180 27.444, 134.571 24.952, 132.434 23.076 L 128.930 20 112.981 20 L 97.032 20 93.974 22.750 M 142.897 41.883 C 140.845 43.544, 140.712 44.072, 141.765 46.383 C 143.053 49.210, 146.663 49.937, 148.800 47.800 C 150.637 45.963, 150.228 42.192, 148.066 41.035 C 145.557 39.692, 145.613 39.683, 142.897 41.883 M 106.144 45.146 C 84 51.519, 81.555 82.899, 102.444 92.626 C 119.426 100.534, 138.927 88.453, 138.968 70 C 139.005 53.284, 122.167 40.535, 106.144 45.146 M 107.001 54.123 C 97.738 57.817, 94.146 69.454, 99.466 78.532 C 102.406 83.548, 106.997 86, 113.451 86 C 119.241 86, 123.088 84.063, 126.698 79.329 C 130.496 74.350, 130.720 65.210, 127.166 60.227 C 122.842 54.166, 113.776 51.422, 107.001 54.123 M 0 132.827 C 0 133.282, 1.350 133.455, 3 133.213 C 6.856 132.647, 6.856 132, 3 132 C 1.350 132, 0 132.372, 0 132.827 M 49 137.858 C 49 141.171, 49.427 144.146, 49.950 144.469 C 50.472 144.792, 51.934 143.652, 53.200 141.936 L 55.500 138.816 56.010 141.658 C 56.875 146.480, 58.500 144.311, 58.500 138.333 C 58.500 131.608, 56.924 130.433, 54.109 135.061 L 52.159 138.268 51.829 135.461 C 51.648 133.917, 50.938 132.470, 50.250 132.244 C 49.343 131.946, 49 133.486, 49 137.858 M 61.131 133.342 C 59.625 135.156, 60.785 136.092, 63.648 135.373 C 65.058 135.020, 66 135.227, 66 135.892 C 66 136.501, 65.550 137, 65 137 C 64.450 137, 64 137.675, 64 138.500 C 64 139.325, 64.450 140, 65 140 C 65.550 140, 66 140.486, 66 141.079 C 66 141.759, 64.887 141.915, 63 141.500 C 61.161 141.096, 60 141.245, 60 141.885 C 60 143.583, 63.997 145.217, 66.571 144.572 C 68.694 144.039, 68.939 143.453, 68.803 139.237 C 68.719 136.631, 68.224 133.938, 67.703 133.250 C 66.450 131.598, 62.533 131.653, 61.131 133.342 M 72.585 133.906 C 69.965 136.801, 70.832 142.065, 74.241 143.969 C 77.484 145.780, 79.782 144.779, 81.795 140.677 C 84.762 134.635, 77.053 128.969, 72.585 133.906 M 84.409 133.377 C 84.118 134.134, 84.020 136.947, 84.190 139.627 C 84.474 144.086, 84.729 144.526, 87.201 144.812 C 91.391 145.295, 94.175 143.345, 93.810 140.183 C 93.554 137.966, 92.936 137.446, 90.250 137.187 C 86.164 136.793, 85.959 135, 90 135 C 92 135, 93 134.500, 93 133.500 C 93 131.498, 85.173 131.386, 84.409 133.377 M 96.409 133.377 C 95.536 135.650, 96.423 144.516, 97.500 144.290 C 98.050 144.174, 98.644 143.161, 98.820 142.040 C 99.038 140.643, 99.895 140, 101.534 140 C 103.536 140, 106 137.592, 106 135.637 C 106 132.654, 97.459 130.641, 96.409 133.377 M 109.333 133.217 C 105.798 137.907, 104.498 147.720, 107.965 143.542 C 109.482 141.714, 112.139 141.539, 113.761 143.161 C 115.882 145.282, 119.908 145.041, 121.150 142.719 L 122.298 140.574 123.141 142.851 C 124.061 145.339, 125.987 144.898, 126.022 142.191 C 126.040 140.850, 126.425 140.995, 127.885 142.894 C 130.618 146.448, 132.321 144.742, 130.291 140.484 C 128.757 137.268, 128.764 136.919, 130.390 135.121 C 131.703 133.670, 131.829 133.012, 130.903 132.440 C 130.169 131.986, 128.982 132.539, 127.948 133.816 L 126.220 135.950 125.677 133.874 C 125.079 131.586, 123 132.204, 123 134.670 C 123 135.812, 122.515 135.622, 121.162 133.952 C 120.053 132.582, 118.837 131.983, 118.097 132.440 C 117.168 133.014, 117.283 133.655, 118.567 135.074 C 120.022 136.681, 120.085 137.381, 119.011 139.974 C 118.321 141.639, 117.471 143, 117.122 143 C 116.772 143, 115.588 140.674, 114.490 137.832 C 112.388 132.392, 110.935 131.091, 109.333 133.217 M 133.409 133.377 C 133.118 134.134, 133.020 136.947, 133.190 139.627 L 133.500 144.500 137.417 144.500 C 139.661 144.500, 141.511 143.966, 141.750 143.250 C 142.025 142.425, 141.089 142, 139 142 C 135.107 142, 135.379 139.651, 139.327 139.184 C 142.980 138.751, 142.718 137, 139 137 C 137.350 137, 136 136.550, 136 136 C 136 135.450, 137.350 135, 139 135 C 141 135, 142 134.500, 142 133.500 C 142 131.498, 134.173 131.386, 133.409 133.377 M 144.409 133.377 C 144.118 134.134, 144.020 136.947, 144.190 139.627 C 144.510 144.658, 146.087 145.867, 147.044 141.814 C 147.832 138.476, 150.775 138.232, 151.178 141.472 C 151.811 146.565, 153.504 144.421, 153.800 138.150 C 154.030 133.288, 153.796 131.900, 152.800 132.228 C 152.085 132.464, 151.356 133.634, 151.180 134.828 C 150.706 138.056, 147 137.765, 147 134.500 C 147 131.831, 145.287 131.089, 144.409 133.377 M 156.409 133.377 C 155.475 135.809, 156.458 144.330, 157.720 144.745 C 158.391 144.966, 159.818 143.703, 160.891 141.939 L 162.841 138.732 163.171 141.397 C 163.803 146.515, 165.501 144.481, 165.798 138.250 C 165.969 134.652, 165.682 132, 165.120 132 C 164.584 132, 162.992 133.463, 161.584 135.250 L 159.022 138.500 159.011 135.250 C 159 131.978, 157.390 130.819, 156.409 133.377 M 168.711 132.622 C 167.621 133.712, 167.866 143.799, 169 144.500 C 170.003 145.120, 170.094 144.756, 170.434 138.750 C 170.650 134.919, 169.721 131.612, 168.711 132.622 M 74.412 136.368 C 73.406 138.989, 74.434 141.500, 76.514 141.500 C 78.052 141.500, 78.500 140.826, 78.500 138.514 C 78.500 135.242, 75.457 133.645, 74.412 136.368 M 99.192 136.075 C 99.389 136.666, 99.977 137.150, 100.500 137.150 C 101.023 137.150, 101.611 136.666, 101.808 136.075 C 102.005 135.484, 101.417 135, 100.500 135 C 99.583 135, 98.995 135.484, 99.192 136.075 M 1 137 C 1 137.550, 2.152 138, 3.559 138 C 5.010 138, 5.851 137.567, 5.500 137 C 5.160 136.450, 4.009 136, 2.941 136 C 1.873 136, 1 136.450, 1 137 M 87.598 139.736 C 86.394 140.939, 87.051 142, 89 142 C 90.100 142, 91 141.598, 91 141.107 C 91 139.983, 88.399 138.934, 87.598 139.736 M 1 142 C 1 142.550, 2.125 143, 3.500 143 C 4.875 143, 6 142.550, 6 142 C 6 141.450, 4.875 141, 3.500 141 C 2.125 141, 1 141.450, 1 142 M 0 170 C 0 170.550, 0.450 171, 1 171 C 1.550 171, 2 170.550, 2 170 C 2 169.450, 1.550 169, 1 169 C 0.450 169, 0 169.450, 0 170 M 55 171 C 52.602 173.398, 52.433 176.746, 54.557 179.777 C 57.608 184.134, 65 181.106, 65 175.500 C 65 172.497, 61.772 169, 59 169 C 57.900 169, 56.100 169.900, 55 171 M 66 170.500 C 66 171.325, 66.675 172, 67.500 172 C 68.633 172, 69 173.222, 69 177 C 69 180.778, 69.367 182, 70.500 182 C 71.629 182, 72 180.791, 72 177.117 C 72 172.996, 72.328 172.147, 74.101 171.684 C 77.594 170.770, 75.181 169, 70.441 169 C 67.160 169, 66 169.392, 66 170.500 M 78.491 170.383 C 74.280 173.462, 76.947 182, 82.120 182 C 83.971 182, 87 179.473, 87 177.929 C 87 176.684, 84.279 176.740, 83.500 178 C 82.466 179.674, 80.264 179.118, 79.722 177.046 C 79.441 175.972, 79.790 174.302, 80.498 173.334 C 81.601 171.825, 82.018 171.770, 83.434 172.945 C 85.823 174.928, 87.690 172.833, 85.493 170.636 C 83.493 168.636, 81.003 168.546, 78.491 170.383 M 88 169.883 C 88 170.460, 88.787 172.595, 89.750 174.627 C 91.078 177.431, 91.198 178.425, 90.250 178.745 C 88.297 179.404, 88.750 182.193, 90.750 181.823 C 91.713 181.645, 93.640 179.250, 95.033 176.500 C 97.072 172.476, 97.999 171.562, 99.783 171.820 C 101.735 172.101, 102 172.738, 102 177.153 C 102 183.705, 104.373 183.298, 104.805 176.672 C 105.026 173.280, 105.528 172, 106.638 172 C 107.479 172, 107.975 171.438, 107.741 170.750 C 107.465 169.939, 105.243 169.501, 101.408 169.502 C 96.244 169.505, 95.376 169.788, 94.513 171.752 C 93.280 174.560, 92.732 174.571, 91.487 171.815 C 90.434 169.482, 88 168.134, 88 169.883 M 111 171 C 107.128 174.872, 109.509 182, 114.674 182 C 117.212 182, 120.609 178.494, 119.021 177.513 C 118.411 177.136, 117.263 177.367, 116.469 178.026 C 114.356 179.780, 112 178.448, 112 175.500 C 112 172.504, 114.366 171.229, 116.555 173.046 C 117.714 174.007, 118.366 174.034, 119.242 173.158 C 119.879 172.521, 121.210 172, 122.200 172 C 123.697 172, 124 172.855, 124 177.083 C 124 183.691, 126.370 183.344, 126.805 176.672 C 127.018 173.405, 127.544 172, 128.555 172 C 129.350 172, 130 171.325, 130 170.500 C 130 168.390, 121.176 168.377, 120.367 170.486 C 119.863 171.800, 119.552 171.800, 117.676 170.486 C 114.842 168.500, 113.387 168.613, 111 171 M 131.409 170.377 C 131.118 171.134, 131.020 173.947, 131.190 176.627 C 131.496 181.440, 131.545 181.504, 135.126 181.803 C 140.071 182.216, 142.042 180.127, 141.315 175.243 C 141.008 173.184, 140.051 170.938, 139.187 170.250 C 137.085 168.576, 132.069 168.658, 131.409 170.377 M 142 169.540 C 142 169.837, 142.900 171.844, 144 174 C 146.411 178.726, 146.434 179, 144.417 179 C 142.358 179, 143.154 181.401, 145.354 181.827 C 146.570 182.063, 147.735 180.587, 149.521 176.549 C 150.884 173.466, 152 170.506, 152 169.971 C 152 168.076, 150.044 169.038, 148.706 171.591 L 147.349 174.182 145.651 171.591 C 144.143 169.289, 142 168.085, 142 169.540 M 153.431 170.319 C 153.128 171.108, 153.020 173.947, 153.190 176.627 L 153.500 181.500 157.917 181.500 C 160.561 181.500, 162.501 180.998, 162.750 180.250 C 163.023 179.430, 162.106 179, 160.083 179 C 158.387 179, 157 178.550, 157 178 C 157 177.450, 158.125 177, 159.500 177 C 161.056 177, 162 176.433, 162 175.500 C 162 174.567, 161.056 174, 159.500 174 C 158.125 174, 157 173.550, 157 173 C 157 172.450, 158.387 172, 160.083 172 C 164.789 172, 163.118 169.557, 158.163 169.192 C 155.235 168.976, 153.817 169.314, 153.431 170.319 M 164 170.500 C 164 171.325, 164.650 172, 165.445 172 C 166.456 172, 166.982 173.405, 167.195 176.672 C 167.366 179.283, 168.051 181.525, 168.750 181.755 C 169.665 182.056, 170 180.403, 170 175.583 L 170 169 167 169 C 165 169, 164 169.500, 164 170.500 M 56.425 174.443 C 55.668 177.459, 56.536 179, 58.992 179 C 61.314 179, 62.587 175.412, 60.960 173.452 C 59.142 171.262, 57.112 171.705, 56.425 174.443 M 135 173 C 135 173.550, 135.675 174, 136.500 174 C 137.325 174, 138 173.550, 138 173 C 138 172.450, 137.325 172, 136.500 172 C 135.675 172, 135 172.450, 135 173 M 135 178 C 135 178.550, 135.675 179, 136.500 179 C 137.325 179, 138 178.550, 138 178 C 138 177.450, 137.325 177, 136.500 177 C 135.675 177, 135 177.450, 135 178 M 1.762 199.707 C 3.006 199.946, 4.806 199.937, 5.762 199.687 C 6.718 199.437, 5.700 199.241, 3.500 199.252 C 1.300 199.263, 0.518 199.468, 1.762 199.707 " stroke="none" fill="black" fill-rule="evenodd"/>
</svg>